<svg width="172" height="172" viewBox="0 0 172 172" fill="none" xmlns="http://www.w3.org/2000/svg">
<circle cx="86" cy="86" r="86" fill="#F5F2EC"/>
<path d="M86 43.7C80.4599 43.7 75.1468 45.9546 71.2293 49.9679C67.3119 53.9812 65.1111 59.4244 65.1111 65.1C65.1111 70.7756 67.3119 76.2188 71.2293 80.2321C75.1468 84.2454 80.4599 86.5 86 86.5C91.5401 86.5 96.8533 84.2454 100.771 80.2321C104.688 76.2188 106.889 70.7756 106.889 65.1C106.889 59.4244 104.688 53.9812 100.771 49.9679C96.8533 45.9546 91.5401 43.7 86 43.7ZM54.6667 65.1C54.6667 56.5865 57.9678 48.4218 63.844 42.4019C69.7201 36.382 77.6899 33 86 33C94.3101 33 102.28 36.382 108.156 42.4019C114.032 48.4218 117.333 56.5865 117.333 65.1C117.333 73.6134 114.032 81.7782 108.156 87.7981C102.28 93.818 94.3101 97.2 86 97.2C77.6899 97.2 69.7201 93.818 63.844 87.7981C57.9678 81.7782 54.6667 73.6134 54.6667 65.1ZM65.1111 118.6C60.9561 118.6 56.9712 120.291 54.0331 123.301C51.095 126.311 49.4444 130.393 49.4444 134.65C49.4444 136.069 48.8942 137.43 47.9149 138.433C46.9355 139.436 45.6072 140 44.2222 140C42.8372 140 41.5089 139.436 40.5296 138.433C39.5502 137.43 39 136.069 39 134.65C39 127.555 41.751 120.751 46.6478 115.735C51.5446 110.718 58.186 107.9 65.1111 107.9H106.889C113.814 107.9 120.455 110.718 125.352 115.735C130.249 120.751 133 127.555 133 134.65C133 136.069 132.45 137.43 131.47 138.433C130.491 139.436 129.163 140 127.778 140C126.393 140 125.064 139.436 124.085 138.433C123.106 137.43 122.556 136.069 122.556 134.65C122.556 130.393 120.905 126.311 117.967 123.301C115.029 120.291 111.044 118.6 106.889 118.6H65.1111Z" fill="#A1A1A1" fill-opacity="0.74"/>
<mask id="path-3-inside-1_2205_6138" fill="white">
<path d="M148.715 68C149.264 68.0001 149.79 68.2183 150.179 68.6064L156.394 74.8213C156.782 75.2097 157 75.7361 157 76.2852C157 76.8344 156.782 77.3615 156.394 77.75L137.75 96.3926C137.362 96.781 136.835 96.9998 136.286 97H130.071C129.522 97 128.995 96.782 128.606 96.3936C128.218 96.0051 128 95.478 128 94.9287V88.7139C128 88.1646 128.219 87.6383 128.607 87.25L147.25 68.6064C147.638 68.2181 148.166 68 148.715 68Z"/>
</mask>
<path d="M148.715 68L148.715 64H148.715V68ZM150.179 68.6064L153.007 65.778L153.006 65.7771L150.179 68.6064ZM156.394 74.8213L159.223 71.9937L159.222 71.9929L156.394 74.8213ZM157 76.2852H161V76.2847L157 76.2852ZM156.394 77.75L159.222 80.5785L159.222 80.578L156.394 77.75ZM137.75 96.3926L134.922 93.5641L134.921 93.5646L137.75 96.3926ZM136.286 97V101H136.288L136.286 97ZM130.071 97L130.071 101H130.071V97ZM128.606 96.3936L125.778 99.222L125.778 99.222L128.606 96.3936ZM128 94.9287H124V94.929L128 94.9287ZM128 88.7139L124 88.7124V88.7139H128ZM128.607 87.25L131.435 90.0789L131.436 90.0784L128.607 87.25ZM147.25 68.6064L144.422 65.7776L144.421 65.7781L147.25 68.6064ZM148.715 68L148.714 72C148.202 71.9999 147.712 71.7962 147.351 71.4357L150.179 68.6064L153.006 65.7771C151.869 64.6404 150.326 64.0002 148.715 64L148.715 68ZM150.179 68.6064L147.35 71.4349L153.565 77.6497L156.394 74.8213L159.222 71.9929L153.007 65.778L150.179 68.6064ZM156.394 74.8213L153.564 77.6488C153.204 77.2882 153 76.7981 153 76.2856L157 76.2852L161 76.2847C161 74.6741 160.36 73.1312 159.223 71.9937L156.394 74.8213ZM157 76.2852H153C153 75.7747 153.203 75.2843 153.565 74.922L156.394 77.75L159.222 80.578C160.361 79.4388 161 77.8942 161 76.2852H157ZM156.394 77.75L153.565 74.9215L134.922 93.5641L137.75 96.3926L140.578 99.2211L159.222 80.5785L156.394 77.75ZM137.75 96.3926L134.921 93.5646C135.28 93.2052 135.77 93.0002 136.285 93L136.286 97L136.288 101C137.901 100.999 139.443 100.357 140.579 99.2206L137.75 96.3926ZM136.286 97V93H130.071V97V101H136.286V97ZM130.071 97L130.072 93C130.581 93 131.072 93.2022 131.435 93.5651L128.606 96.3936L125.778 99.222C126.918 100.362 128.463 101 130.071 101L130.071 97ZM128.606 96.3936L131.435 93.5651C131.798 93.9281 132 94.4189 132 94.9284L128 94.9287L124 94.929C124 96.5372 124.638 98.0821 125.778 99.222L128.606 96.3936ZM128 94.9287H132V88.7139H128H124V94.9287H128ZM128 88.7139L132 88.7153C132 89.2298 131.795 89.7196 131.435 90.0789L128.607 87.25L125.779 84.4211C124.643 85.5571 124.001 87.0995 124 88.7124L128 88.7139ZM128.607 87.25L131.436 90.0784L150.079 71.4348L147.25 68.6064L144.421 65.7781L125.779 84.4216L128.607 87.25ZM147.25 68.6064L150.078 71.4353C149.716 71.7975 149.225 72 148.715 72V68V64C147.106 64 145.561 64.6387 144.422 65.7776L147.25 68.6064Z" fill="#A1A1A1" fill-opacity="0.74" mask="url(#path-3-inside-1_2205_6138)"/>
</svg>
