<?xml version="1.0" encoding="UTF-8"?>
<svg id="Capa_2" xmlns="http://www.w3.org/2000/svg" viewBox="0 0 1080 1080">
  <defs>
    <style>
      .cls-1 {
        fill: #fff;
      }

      .cls-2 {
        fill: #152d52;
      }

      .cls-3 {
        fill: #f9a458;
      }
    </style>
  </defs>
  <g id="Capa_1-2" data-name="Capa_1">
    <g>
      <polygon class="cls-2" points="0 540 0 1080 540 1080 1080 1080 1080 540 1080 0 540 0 0 0 0 540"/>
      <path class="cls-3" d="M620.1,497.9c24.1,95.3,44,173.5,44.2,173.8.3.2,47.6-77.9,105.2-173.7l104.8-174h106.7l-.5,2.2c-.3,1.3-18.7,106-41,232.8s-40.8,231.3-41.1,232.2c-.5,1.7-3.6,1.8-47.5,1.8-29.5,0-46.9-.4-46.9-1,0-.5,11.9-68.3,26.5-150.6s26.4-149.8,26.2-150-40.3,67.6-89.3,150.6l-88.9,151-36-.2-35.9-.3-35.6-150.7c-19.6-82.9-35.9-151-36.1-151.2-.3-.3-12.1,65.3-26.3,145.7s-26.3,148.6-26.9,151.4l-1,5.3h-46.8c-41.8,0-46.9-.2-46.9-1.6,0-1.7,81.8-463,82.6-465.7.5-1.6,3.7-1.7,53.6-1.5l53.2.3,43.7,173.4Z"/>
      <polygon class="cls-1" points="420 365 420 403 357.5 403 295 403 295 599.5 295 796 247.5 796 200 796 200 599.5 200 403 137.5 403 75 403 75 365 75 327 247.5 327 420 327 420 365"/>
    </g>
  </g>
</svg>