<svg width="175" height="142" viewBox="0 0 175 142" fill="none" xmlns="http://www.w3.org/2000/svg">
<path d="M150.55 0C152.632 0 154.629 0.827049 156.101 2.29921C157.573 3.77137 158.4 5.76805 158.4 7.85V15.7H166.25C168.332 15.7 170.329 16.527 171.801 17.9992C173.273 19.4714 174.1 21.4681 174.1 23.55C174.1 25.6319 173.273 27.6286 171.801 29.1008C170.329 30.5729 168.332 31.4 166.25 31.4H158.4V39.25C158.4 41.3319 157.573 43.3286 156.101 44.8008C154.629 46.273 152.632 47.1 150.55 47.1C148.468 47.1 146.471 46.273 144.999 44.8008C143.527 43.3286 142.7 41.3319 142.7 39.25V31.4H134.85C132.768 31.4 130.771 30.5729 129.299 29.1008C127.827 27.6286 127 25.6319 127 23.55C127 21.4681 127.827 19.4714 129.299 17.9992C130.771 16.527 132.768 15.7 134.85 15.7H142.7V7.85C142.7 5.76805 143.527 3.77137 144.999 2.29921C146.471 0.827049 148.468 0 150.55 0Z" fill="#F88623"/>
<path d="M123.407 42.6731H100.634C99.9691 34.5896 96.2429 27.0489 90.1963 21.5507C84.1496 16.0526 76.2255 13 68 13C59.7745 13 51.8504 16.0526 45.8037 21.5507C39.7571 27.0489 36.0309 34.5896 35.3663 42.6731H12.5926C9.25283 42.6731 6.04985 43.9812 3.68828 46.3096C1.32672 48.638 0 51.7961 0 55.089V129.584C0 132.877 1.32672 136.035 3.68828 138.363C6.04985 140.692 9.25283 142 12.5926 142H123.407C126.747 142 129.95 140.692 132.312 138.363C134.673 136.035 136 132.877 136 129.584V55.089C136 51.7961 134.673 48.638 132.312 46.3096C129.95 43.9812 126.747 42.6731 123.407 42.6731ZM68 27.7741C72.239 27.7745 76.3359 29.2808 79.5402 32.0171C82.7445 34.7534 84.8415 38.5364 85.447 42.6731H50.553C51.1585 38.5364 53.2555 34.7534 56.4598 32.0171C59.6641 29.2808 63.761 27.7745 68 27.7741ZM120.889 127.101H15.1111V57.5721H35.2593V65.0216C35.2593 66.9974 36.0553 68.8922 37.4722 70.2892C38.8892 71.6863 40.811 72.4712 42.8148 72.4712C44.8187 72.4712 46.7405 71.6863 48.1574 70.2892C49.5743 68.8922 50.3704 66.9974 50.3704 65.0216V57.5721H85.6296V65.0216C85.6296 66.9974 86.4257 68.8922 87.8426 70.2892C89.2595 71.6863 91.1813 72.4712 93.1852 72.4712C95.189 72.4712 97.1108 71.6863 98.5278 70.2892C99.9447 68.8922 100.741 66.9974 100.741 65.0216V57.5721H120.889V127.101Z" fill="#152D53"/>
</svg>
