<svg width="168" height="157" viewBox="0 0 168 157" fill="none" xmlns="http://www.w3.org/2000/svg">
<path d="M143.55 68C145.632 68 147.629 68.827 149.101 70.2992C150.573 71.7714 151.4 73.768 151.4 75.85V83.7H159.25C161.332 83.7 163.329 84.527 164.801 85.9992C166.273 87.4714 167.1 89.4681 167.1 91.55C167.1 93.6319 166.273 95.6286 164.801 97.1008C163.329 98.5729 161.332 99.4 159.25 99.4H151.4V107.25C151.4 109.332 150.573 111.329 149.101 112.801C147.629 114.273 145.632 115.1 143.55 115.1C141.468 115.1 139.471 114.273 137.999 112.801C136.527 111.329 135.7 109.332 135.7 107.25V99.4H127.85C125.768 99.4 123.771 98.5729 122.299 97.1008C120.827 95.6286 120 93.6319 120 91.55C120 89.4681 120.827 87.4714 122.299 85.9992C123.771 84.527 125.768 83.7 127.85 83.7H135.7V75.85C135.7 73.768 136.527 71.7714 137.999 70.2992C139.471 68.827 141.468 68 143.55 68Z" fill="#F88623"/>
<path d="M62.8 15.7C54.4722 15.7 46.4855 19.0082 40.5968 24.8968C34.7082 30.7855 31.4 38.7722 31.4 47.1C31.4 55.4278 34.7082 63.4145 40.5968 69.3032C46.4855 75.1918 54.4722 78.5 62.8 78.5C71.1278 78.5 79.1145 75.1918 85.0032 69.3032C90.8918 63.4145 94.2 55.4278 94.2 47.1C94.2 38.7722 90.8918 30.7855 85.0032 24.8968C79.1145 19.0082 71.1278 15.7 62.8 15.7ZM15.7 47.1C15.7 34.6083 20.6623 22.6282 29.4953 13.7953C38.3282 4.96231 50.3083 0 62.8 0C75.2917 0 87.2718 4.96231 96.1047 13.7953C104.938 22.6282 109.9 34.6083 109.9 47.1C109.9 59.5917 104.938 71.5718 96.1047 80.4047C87.2718 89.2377 75.2917 94.2 62.8 94.2C50.3083 94.2 38.3282 89.2377 29.4953 80.4047C20.6623 71.5718 15.7 59.5917 15.7 47.1ZM35.325 125.6C25.434 125.6 15.7 135.122 15.7 149.15C15.7 151.232 14.8729 153.229 13.4008 154.701C11.9286 156.173 9.93195 157 7.85 157C5.76805 157 3.77137 156.173 2.29921 154.701C0.827051 153.229 0 151.232 0 149.15C0 128.489 14.86 109.9 35.325 109.9H90.275C110.74 109.9 125.6 128.489 125.6 149.15C125.6 151.232 124.773 153.229 123.301 154.701C121.829 156.173 119.832 157 117.75 157C115.668 157 113.671 156.173 112.199 154.701C110.727 153.229 109.9 151.232 109.9 149.15C109.9 135.122 100.166 125.6 90.275 125.6H35.325Z" fill="#152D53"/>
</svg>
