<svg width="30" height="30" viewBox="0 0 30 30" fill="none" xmlns="http://www.w3.org/2000/svg">
<path d="M7.50049 3C7.50049 2.20435 7.81656 1.44129 8.37917 0.87868C8.94178 0.31607 9.70484 0 10.5005 0H19.5005C20.2961 0 21.0592 0.31607 21.6218 0.87868C22.1844 1.44129 22.5005 2.20435 22.5005 3V6H28.5005C28.8983 6 29.2798 6.15804 29.5611 6.43934C29.8425 6.72064 30.0005 7.10218 30.0005 7.5C30.0005 7.89782 29.8425 8.27936 29.5611 8.56066C29.2798 8.84196 28.8983 9 28.5005 9H26.897L25.5965 27.213C25.5426 27.9699 25.2039 28.6782 24.6487 29.1954C24.0934 29.7125 23.3628 30 22.604 30H7.39549C6.6367 30 5.90609 29.7125 5.35082 29.1954C4.79554 28.6782 4.45686 27.9699 4.40299 27.213L3.10549 9H1.50049C1.10266 9 0.721133 8.84196 0.439828 8.56066C0.158523 8.27936 0.000488281 7.89782 0.000488281 7.5C0.000488281 7.10218 0.158523 6.72064 0.439828 6.43934C0.721133 6.15804 1.10266 6 1.50049 6H7.50049V3ZM10.5005 6H19.5005V3H10.5005V6ZM6.11149 9L7.39699 27H22.6055L23.891 9H6.11149ZM12.0005 12C12.3983 12 12.7798 12.158 13.0611 12.4393C13.3425 12.7206 13.5005 13.1022 13.5005 13.5V22.5C13.5005 22.8978 13.3425 23.2794 13.0611 23.5607C12.7798 23.842 12.3983 24 12.0005 24C11.6027 24 11.2211 23.842 10.9398 23.5607C10.6585 23.2794 10.5005 22.8978 10.5005 22.5V13.5C10.5005 13.1022 10.6585 12.7206 10.9398 12.4393C11.2211 12.158 11.6027 12 12.0005 12ZM18.0005 12C18.3983 12 18.7798 12.158 19.0611 12.4393C19.3425 12.7206 19.5005 13.1022 19.5005 13.5V22.5C19.5005 22.8978 19.3425 23.2794 19.0611 23.5607C18.7798 23.842 18.3983 24 18.0005 24C17.6027 24 17.2211 23.842 16.9398 23.5607C16.6585 23.2794 16.5005 22.8978 16.5005 22.5V13.5C16.5005 13.1022 16.6585 12.7206 16.9398 12.4393C17.2211 12.158 17.6027 12 18.0005 12Z" fill="black"/>
</svg>
