<svg width="170" height="157" viewBox="0 0 170 157" fill="none" xmlns="http://www.w3.org/2000/svg">
<path d="M155.207 62.9202C155.796 62.331 156.596 62 157.429 62C158.262 62 159.062 62.331 159.651 62.9202L169.08 72.3489C169.669 72.9383 170 73.7376 170 74.5709C170 75.4043 169.669 76.2036 169.08 76.793L140.794 105.079C140.204 105.669 139.405 106 138.572 106H129.143C128.309 106 127.51 105.669 126.921 105.079C126.331 104.49 126 103.691 126 102.857V93.4284C126 92.5949 126.331 91.7956 126.921 91.2063L155.207 62.9202ZM132.286 94.7295V99.7142H137.27L162.414 74.5709L157.429 69.5863L132.286 94.7295Z" fill="#F88623"/>
<path d="M62.8 15.7C54.4722 15.7 46.4855 19.0082 40.5968 24.8968C34.7082 30.7855 31.4 38.7722 31.4 47.1C31.4 55.4278 34.7082 63.4145 40.5968 69.3032C46.4855 75.1918 54.4722 78.5 62.8 78.5C71.1278 78.5 79.1145 75.1918 85.0032 69.3032C90.8918 63.4145 94.2 55.4278 94.2 47.1C94.2 38.7722 90.8918 30.7855 85.0032 24.8968C79.1145 19.0082 71.1278 15.7 62.8 15.7ZM15.7 47.1C15.7 34.6083 20.6623 22.6282 29.4953 13.7953C38.3282 4.96231 50.3083 0 62.8 0C75.2917 0 87.2718 4.96231 96.1047 13.7953C104.938 22.6282 109.9 34.6083 109.9 47.1C109.9 59.5917 104.938 71.5718 96.1047 80.4047C87.2718 89.2377 75.2917 94.2 62.8 94.2C50.3083 94.2 38.3282 89.2377 29.4953 80.4047C20.6623 71.5718 15.7 59.5917 15.7 47.1ZM35.325 125.6C25.434 125.6 15.7 135.122 15.7 149.15C15.7 151.232 14.8729 153.229 13.4008 154.701C11.9286 156.173 9.93195 157 7.85 157C5.76805 157 3.77137 156.173 2.29921 154.701C0.827051 153.229 0 151.232 0 149.15C0 128.489 14.86 109.9 35.325 109.9H90.275C110.74 109.9 125.6 128.489 125.6 149.15C125.6 151.232 124.773 153.229 123.301 154.701C121.829 156.173 119.832 157 117.75 157C115.668 157 113.671 156.173 112.199 154.701C110.727 153.229 109.9 151.232 109.9 149.15C109.9 135.122 100.166 125.6 90.275 125.6H35.325Z" fill="#152D53"/>
<path d="M157.429 62C158.262 62 159.062 62.3307 159.651 62.9199L169.08 72.3486C169.669 72.938 170 73.7379 170 74.5713C170 75.4045 169.669 76.2037 169.08 76.793L140.794 105.079C140.205 105.669 139.405 106 138.571 106H129.143C128.309 106 127.51 105.668 126.921 105.079C126.332 104.49 126 103.691 126 102.857V93.4287C126 92.5952 126.331 91.7953 126.921 91.2061L155.207 62.9199C155.796 62.3309 156.596 62.0001 157.429 62Z" fill="#F88623"/>
</svg>
